<svg xmlns="http://www.w3.org/2000/svg" viewBox="0 0 300 200" width="300" height="200">
  <rect x="0.0" y="0.0" width="300.0" height="200.0" fill="#fafafa"/>
  <text x="14.0" y="24.0" font-family="system-ui,-apple-system,sans-serif" font-size="12" font-weight="700" fill="#3f3f46" text-anchor="start">스토어프론트 그리드</text>
  <text x="286.0" y="24.0" font-family="ui-monospace,monospace" font-size="8" font-weight="400" fill="#9a9aa2" text-anchor="end">storefront-grid</text>
  <rect x="14.0" y="30.0" width="272.0" height="156.0" fill="none" stroke="#c9c9cf" stroke-width="1"/>
  <rect x="14.0" y="30.0" width="56.0" height="156.0" fill="#e4e4e7"/>
  <rect x="22.0" y="42.0" width="6.0" height="6.0" fill="#a1a1aa"/>
  <rect x="32.0" y="42.0" width="30.0" height="6.0" fill="#d4d4d8"/>
  <rect x="22.0" y="62.0" width="6.0" height="6.0" fill="#a1a1aa"/>
  <rect x="32.0" y="62.0" width="30.0" height="6.0" fill="#d4d4d8"/>
  <rect x="22.0" y="82.0" width="6.0" height="6.0" fill="none" stroke="#a1a1aa" stroke-width="1"/>
  <rect x="32.0" y="82.0" width="30.0" height="6.0" fill="#d4d4d8"/>
  <rect x="22.0" y="102.0" width="6.0" height="6.0" fill="none" stroke="#a1a1aa" stroke-width="1"/>
  <rect x="32.0" y="102.0" width="30.0" height="6.0" fill="#d4d4d8"/>
  <rect x="82.0" y="30.0" width="62.0" height="50.0" fill="#a1a1aa"/>
  <rect x="150.0" y="30.0" width="62.0" height="50.0" fill="#d4d4d8"/>
  <rect x="218.0" y="30.0" width="68.0" height="50.0" fill="#d4d4d8"/>
  <rect x="82.0" y="84.0" width="62.0" height="8.0" fill="#a1a1aa"/>
  <rect x="150.0" y="84.0" width="62.0" height="8.0" fill="#a1a1aa"/>
  <rect x="218.0" y="84.0" width="68.0" height="8.0" fill="#a1a1aa"/>
  <rect x="82.0" y="110.0" width="62.0" height="50.0" fill="#d4d4d8"/>
  <rect x="150.0" y="110.0" width="62.0" height="50.0" fill="#d4d4d8"/>
  <rect x="218.0" y="110.0" width="68.0" height="50.0" fill="#d4d4d8"/>
  <rect x="82.0" y="164.0" width="62.0" height="8.0" fill="#a1a1aa"/>
  <rect x="150.0" y="164.0" width="62.0" height="8.0" fill="#a1a1aa"/>
  <rect x="218.0" y="164.0" width="68.0" height="8.0" fill="#a1a1aa"/>
</svg>
